<?xml version="1.0" standalone="no"?>
<!DOCTYPE svg PUBLIC "-//W3C//DTD SVG 20010904//EN"
 "http://www.w3.org/TR/2001/REC-SVG-20010904/DTD/svg10.dtd">
<svg version="1.0" xmlns="http://www.w3.org/2000/svg"
 width="500.000000pt" height="500.000000pt" viewBox="0 0 500.000000 500.000000"
 preserveAspectRatio="xMidYMid meet">
<metadata>
Created by potrace 1.14, written by Peter Selinger 2001-2017
</metadata>
<g transform="translate(0.000000,500.000000) scale(0.100000,-0.100000)"
fill="#000000" stroke="none">
<path d="M2538 4883 c-16 -8 -28 -21 -28 -29 0 -19 -49 -18 -74 1 -24 18 -128
20 -156 3 -15 -9 -24 -9 -43 1 -15 8 -31 10 -39 5 -7 -5 -26 -9 -43 -10 -27
-1 -140 -18 -203 -30 -31 -6 -66 -48 -72 -87 -5 -30 -8 -32 -49 -35 -35 -3
-43 0 -38 12 12 31 -50 52 -78 25 -5 -5 -19 -9 -31 -9 -14 0 -34 -15 -55 -41
-30 -38 -35 -41 -71 -35 -56 9 -151 -43 -162 -90 -7 -25 -30 -31 -55 -15 -8 5
-24 4 -40 -4 -14 -7 -43 -20 -63 -29 -21 -9 -38 -22 -38 -29 0 -8 -21 -29 -48
-47 -49 -36 -63 -52 -72 -85 -3 -11 -15 -20 -26 -21 -22 -1 -74 -32 -74 -43 0
-4 5 -12 12 -19 21 -21 -4 -33 -39 -20 -30 11 -33 10 -68 -27 -40 -44 -52 -75
-38 -100 10 -17 -5 -95 -18 -95 -3 0 -10 9 -15 20 -9 20 -10 19 -64 -9 -47
-25 -55 -34 -58 -61 -3 -25 -13 -37 -53 -61 -33 -21 -49 -37 -49 -51 0 -26
-46 -88 -64 -88 -8 0 -17 -15 -20 -34 -4 -19 -13 -39 -20 -45 -8 -7 -17 -27
-20 -45 -4 -19 -13 -37 -22 -40 -11 -4 -14 -17 -12 -48 3 -39 6 -44 35 -53 35
-10 42 -25 19 -44 -10 -8 -16 -9 -21 -1 -11 17 -24 11 -31 -15 -7 -28 -14 -31
-33 -12 -10 10 -18 5 -42 -23 -16 -19 -29 -41 -29 -50 0 -9 -5 -21 -10 -26 -8
-8 -8 -19 0 -38 14 -39 13 -46 -10 -46 -11 0 -20 -7 -20 -16 0 -8 -5 -25 -12
-37 -16 -30 -20 -90 -5 -99 8 -5 6 -12 -6 -26 -9 -10 -17 -22 -17 -26 0 -4 -9
-20 -21 -35 -15 -21 -19 -35 -13 -52 4 -13 7 -29 6 -36 -2 -7 6 -30 17 -52 18
-34 19 -41 6 -51 -8 -7 -15 -22 -15 -33 0 -11 -7 -25 -15 -31 -9 -7 -17 -39
-21 -92 -6 -69 -4 -86 12 -113 13 -22 15 -34 7 -42 -8 -8 -7 -19 4 -39 9 -20
11 -35 5 -47 -5 -10 -12 -38 -16 -63 -8 -50 14 -105 46 -113 10 -3 18 -14 18
-25 0 -26 18 -38 26 -17 4 9 13 13 23 10 10 -3 33 6 54 22 35 27 35 29 32 88
-2 33 -5 69 -5 79 -1 11 -10 32 -20 47 -25 34 -25 54 -1 71 17 12 19 28 20
135 1 96 -2 123 -14 133 -18 15 -20 46 -4 56 7 4 9 21 6 40 -7 40 7 52 32 30
18 -16 19 -15 24 11 3 15 9 40 13 56 4 19 -1 43 -20 83 -15 31 -26 64 -24 73
2 9 19 21 37 27 42 14 89 87 71 110 -19 22 -1 76 41 121 22 24 39 49 39 56 0
8 8 21 18 31 11 9 25 35 32 59 7 23 17 46 22 52 4 5 8 24 8 41 0 33 21 64 43
64 17 0 57 62 57 88 0 12 6 22 13 22 20 0 47 33 47 59 0 28 28 71 46 71 16 0
204 183 204 199 0 6 8 11 18 11 25 0 98 81 105 116 3 19 0 35 -11 47 -14 16
-14 20 1 50 15 31 16 31 23 10 3 -13 14 -23 23 -23 9 0 22 -5 29 -12 9 -9 15
-9 24 0 7 7 33 12 58 12 25 0 55 7 66 15 10 8 27 15 36 15 11 0 20 12 26 33 8
30 12 33 68 42 32 6 69 16 81 23 12 6 31 12 42 12 11 0 23 5 26 10 4 7 12 7
25 0 17 -9 30 -58 34 -124 1 -11 7 -21 14 -24 9 -3 11 12 7 65 -4 44 -2 73 5
83 9 11 13 12 17 3 8 -20 23 -15 23 7 0 33 30 70 56 70 26 0 32 -15 36 -95 2
-37 7 -50 18 -50 12 0 16 15 18 66 3 72 3 71 72 88 14 4 26 15 28 26 6 29 22
45 44 45 19 0 19 -1 -1 -29 -18 -25 -20 -37 -13 -83 7 -53 7 -53 45 -56 32 -3
42 -9 59 -38 11 -19 24 -34 29 -34 28 0 -21 -54 -208 -227 -43 -38 -52 -52
-47 -70 5 -19 11 -22 33 -17 14 4 35 12 46 19 39 23 325 46 325 26 0 -6 15
-19 34 -27 32 -16 66 -67 66 -99 0 -8 -10 -21 -23 -30 -12 -8 -36 -35 -51 -60
-30 -47 -90 -100 -105 -91 -4 3 -23 -5 -40 -19 -51 -37 -228 -99 -255 -89 -7
3 -30 29 -49 57 -45 65 -86 91 -128 82 -24 -6 -30 -4 -27 6 8 22 -10 47 -44
65 -17 9 -46 31 -65 50 -18 19 -41 34 -51 34 -9 0 -37 11 -60 25 -34 19 -48
23 -63 14 -22 -11 -25 -6 -32 54 -6 47 -19 63 -57 71 -17 3 -33 13 -37 22 -12
33 -67 73 -99 74 -41 0 -46 -7 -29 -41 8 -15 15 -37 15 -49 0 -11 7 -20 15
-20 23 0 36 -37 36 -103 0 -34 2 -96 4 -137 2 -41 4 -81 5 -87 0 -18 20 -16
20 2 0 8 7 15 15 15 10 0 15 -10 15 -29 0 -32 30 -61 63 -61 23 0 33 -26 17
-45 -14 -17 -5 -36 14 -29 7 3 18 -2 25 -9 9 -12 8 -15 -6 -13 -13 1 -19 -10
-24 -46 -9 -60 10 -122 40 -126 23 -4 26 -13 10 -29 -15 -15 -2 -70 17 -77 12
-4 14 -14 9 -37 -6 -27 -2 -35 44 -77 28 -26 51 -56 51 -66 0 -11 7 -27 16
-37 12 -13 13 -22 5 -38 -21 -39 -14 -53 24 -45 35 6 35 6 35 -30 0 -20 -2
-36 -4 -36 -16 0 -76 44 -76 56 0 8 -7 14 -15 14 -21 0 -19 -34 4 -54 14 -13
18 -29 16 -66 -2 -37 2 -53 15 -65 10 -9 21 -27 24 -41 7 -26 36 -34 36 -9 0
8 4 23 9 33 5 9 17 37 26 62 10 25 22 55 28 67 7 15 6 35 -3 65 -7 24 -14 62
-17 86 -4 32 -9 42 -23 42 -20 0 -36 17 -26 27 4 4 12 1 18 -5 21 -21 69 -13
139 25 38 20 71 34 75 31 8 -9 -13 -45 -63 -106 -23 -30 -43 -60 -43 -67 0 -7
-6 -18 -14 -24 -7 -6 -19 -33 -27 -59 -7 -26 -22 -67 -33 -92 -19 -43 -31 -92
-42 -170 l-5 -35 30 35 c32 38 51 35 33 -5 -7 -14 -12 -35 -12 -46 0 -20 0
-20 26 0 32 25 44 26 44 6 0 -8 -5 -15 -12 -15 -16 0 -68 -51 -68 -66 0 -18
73 13 101 42 19 20 20 24 6 24 -10 0 -17 8 -17 20 0 11 -5 20 -10 20 -6 0 -2
17 9 38 24 46 36 77 51 125 6 20 16 37 21 37 12 0 12 0 -6 -50 -21 -59 -18
-70 9 -37 18 23 28 27 49 22 15 -4 29 -17 33 -28 3 -12 16 -32 27 -45 15 -16
18 -27 12 -36 -163 -224 -194 -270 -187 -281 3 -5 -2 -4 -11 4 -17 13 -16 16
8 41 14 14 25 31 25 36 0 6 9 19 20 29 22 20 27 45 9 45 -6 0 -16 -13 -22 -29
-14 -39 -38 -52 -76 -41 -35 10 -47 0 -31 -29 5 -11 10 -33 10 -50 0 -16 5
-33 10 -36 6 -3 10 -24 10 -46 0 -25 7 -46 19 -58 15 -15 18 -29 14 -58 -4
-29 0 -44 16 -62 12 -14 21 -38 21 -58 0 -21 5 -33 13 -33 8 0 24 -11 37 -25
19 -20 24 -35 21 -64 -1 -25 5 -54 18 -80 12 -22 21 -51 21 -64 0 -14 7 -30
15 -37 8 -7 15 -19 15 -26 0 -16 16 -19 25 -4 10 15 28 12 22 -4 -8 -20 20
-43 35 -28 15 15 2 43 -22 49 -20 5 -28 23 -10 23 6 0 10 7 10 15 0 8 -4 15
-9 15 -5 0 -11 18 -15 40 -6 41 -23 79 -40 91 -5 4 -6 21 -3 38 4 16 2 33 -3
36 -6 3 -10 26 -10 50 0 24 -4 47 -10 50 -12 8 -13 75 -1 75 4 0 11 -28 15
-62 12 -111 57 -267 102 -353 44 -83 80 -136 95 -140 13 -5 49 -69 49 -89 0
-1 -21 -14 -47 -27 -27 -13 -59 -31 -72 -41 -13 -10 -39 -18 -58 -18 -19 0
-43 -5 -55 -11 -16 -9 -23 -7 -35 10 -25 37 -55 23 -68 -32 -7 -25 -5 -28 21
-28 16 0 49 -1 74 -2 25 -1 57 2 73 7 43 13 35 -24 -14 -69 -39 -35 -130 -85
-155 -85 -6 0 -17 -7 -24 -15 -7 -8 -21 -15 -31 -15 -10 0 -27 -9 -38 -21 -25
-27 -41 -21 -55 21 -15 44 3 176 31 241 30 67 33 78 23 84 -6 4 -10 15 -10 26
0 52 -66 -12 -135 -131 -25 -44 -45 -83 -45 -87 0 -4 -16 -39 -35 -78 -19 -38
-35 -77 -35 -85 0 -8 -7 -28 -15 -44 -8 -15 -15 -34 -15 -41 0 -7 -7 -18 -15
-25 -9 -8 -15 -30 -15 -59 0 -26 -5 -52 -11 -58 -5 -5 -12 -30 -14 -54 -3 -24
-7 -64 -11 -89 -5 -35 -2 -49 10 -59 9 -7 16 -19 16 -25 0 -6 23 -31 51 -55
49 -42 56 -45 125 -51 57 -4 79 -10 96 -27 21 -21 23 -21 51 -5 21 12 44 47
83 126 30 59 54 113 54 120 0 14 47 105 66 126 7 8 19 27 26 42 13 23 156 185
214 242 23 22 183 106 202 106 15 0 15 -33 2 -74 -5 -17 -24 -80 -41 -141 -16
-60 -34 -114 -40 -120 -5 -5 -9 -20 -9 -35 -1 -22 -2 -23 -11 -7 -7 12 -7 22
0 30 5 7 8 46 5 92 -3 44 -6 99 -7 122 -3 53 -22 76 -41 50 -7 -9 -17 -17 -22
-17 -16 -1 -85 -70 -94 -96 -6 -14 -6 -33 0 -48 5 -13 6 -33 3 -45 -3 -12 1
-29 9 -39 19 -23 38 -69 38 -93 0 -12 16 -36 35 -55 19 -18 35 -43 35 -54 0
-11 7 -38 17 -61 13 -34 14 -47 4 -74 -15 -42 4 -115 31 -115 16 0 20 -23 19
-125 -1 -21 10 -43 34 -70 19 -21 35 -48 35 -59 1 -29 26 -60 43 -53 15 6 27
50 27 104 0 19 6 46 14 61 10 18 13 49 10 95 -3 51 -1 68 8 65 7 -3 15 -14 18
-26 3 -11 15 -32 28 -47 18 -21 26 -24 42 -15 27 14 40 12 34 -5 -5 -11 1 -15
19 -15 14 0 28 -4 31 -9 3 -5 25 -19 48 -31 55 -29 215 -45 238 -24 34 29 105
52 153 49 27 -2 52 -6 55 -9 3 -3 10 -2 16 3 13 11 76 2 76 -10 0 -15 19 -10
53 14 46 32 48 37 42 89 -3 27 -1 49 5 53 5 3 10 14 10 23 1 25 73 56 99 43
11 -6 29 -11 40 -11 12 0 21 -4 21 -10 0 -5 7 -10 15 -10 8 0 15 -7 15 -16 0
-12 -7 -14 -29 -9 -34 7 -47 -7 -26 -29 17 -17 72 -30 101 -24 10 2 24 13 30
26 15 31 55 72 70 72 6 0 14 8 16 18 3 10 22 28 42 40 36 21 36 21 36 1 0 -14
-6 -19 -17 -17 -27 4 -43 -10 -43 -37 0 -18 -6 -24 -27 -27 -18 -2 -36 -17
-58 -48 -25 -36 -38 -46 -65 -48 -18 -2 -37 1 -43 7 -16 16 -31 13 -63 -11
-15 -13 -33 -23 -39 -23 -11 -1 -61 -22 -85 -36 -8 -5 -24 -13 -35 -18 -12 -5
-32 -21 -45 -35 -27 -28 -50 -34 -50 -12 0 12 -9 11 -52 -2 -29 -9 -62 -25
-73 -35 -11 -10 -29 -16 -40 -13 -11 3 -28 -1 -39 -9 -14 -11 -22 -11 -38 -2
-16 10 -23 7 -47 -22 -20 -24 -32 -32 -42 -25 -20 12 -87 15 -94 4 -3 -6 -21
-10 -38 -10 -18 0 -42 -6 -53 -14 -11 -8 -31 -16 -44 -18 -16 -2 -26 -11 -30
-27 -5 -21 -7 -22 -19 -7 -7 9 -20 16 -28 16 -8 0 -28 8 -43 17 -29 17 -29 17
-71 -26 -24 -24 -43 -52 -44 -64 0 -29 -19 -38 -23 -11 -2 12 -12 30 -23 40
-10 9 -19 25 -19 34 0 9 -9 25 -20 35 -17 16 -24 16 -44 6 -16 -9 -29 -10 -42
-3 -11 5 -39 14 -64 20 -37 9 -47 8 -56 -3 -6 -8 -20 -15 -30 -15 -10 0 -25
-4 -33 -9 -9 -6 -25 3 -53 29 -33 33 -44 38 -72 33 -19 -3 -36 -1 -40 6 -5 8
-16 7 -36 -4 -41 -21 -48 -19 -64 19 -11 27 -21 34 -52 39 -21 4 -43 2 -48 -3
-16 -16 -26 -12 -26 9 0 29 -79 65 -115 51 -32 -12 -43 -7 -55 26 -14 35 -35
39 -76 15 -34 -20 -38 -21 -55 -5 -13 12 -32 15 -76 12 l-58 -3 -3 42 c-4 52
-28 76 -48 48 -12 -16 -12 -22 1 -42 20 -30 8 -30 -20 1 -26 28 -40 83 -25
101 7 9 6 16 -5 25 -8 7 -15 19 -15 26 0 8 -9 19 -20 26 -11 7 -20 20 -20 29
0 9 -24 32 -54 52 -34 22 -61 50 -72 72 -9 20 -25 40 -36 46 -23 12 -39 2 -19
-11 12 -7 11 -13 -5 -37 -24 -36 -41 -64 -51 -83 -4 -8 -16 -23 -28 -32 l-20
-17 21 -1 c11 0 25 5 32 12 9 9 12 8 12 -5 0 -10 7 -20 16 -24 10 -4 13 -13 9
-32 -3 -16 2 -41 15 -66 21 -41 26 -100 11 -124 -13 -20 5 -51 29 -51 14 0 20
7 20 23 0 13 6 29 12 35 7 7 18 41 23 74 10 59 35 94 35 49 0 -12 7 -24 16
-28 11 -4 13 -13 9 -35 -5 -22 -2 -35 13 -51 15 -16 22 -43 27 -99 7 -80 20
-100 31 -50 10 44 12 49 13 20 1 -34 21 -48 21 -14 0 14 3 27 8 30 16 9 94
-12 116 -33 16 -15 35 -21 66 -21 64 0 91 -28 83 -86 -5 -36 -3 -44 10 -44 8
0 20 14 26 31 12 34 31 31 31 -5 0 -32 18 -46 46 -36 17 7 24 6 24 -3 0 -6 9
-27 20 -45 17 -27 24 -31 35 -22 7 6 15 21 17 33 2 17 12 24 48 30 58 9 55 9
120 -2 39 -7 62 -18 78 -37 14 -16 29 -24 38 -20 11 4 18 -1 21 -14 3 -11 11
-20 19 -20 7 0 27 -13 43 -29 22 -21 36 -28 52 -24 20 6 21 3 15 -21 -8 -34 1
-66 19 -66 13 0 25 30 25 66 0 18 6 21 45 22 44 0 45 -1 50 -36 9 -52 13 -62
25 -62 5 0 10 16 10 35 0 39 2 40 30 23 16 -10 23 -9 45 12 34 32 43 19 47
-60 2 -50 7 -65 18 -65 11 0 16 15 18 60 2 32 8 65 14 72 17 20 38 15 48 -12
10 -27 20 -31 36 -15 25 25 89 -37 70 -69 -4 -5 -2 -12 3 -15 5 -3 11 4 15 17
3 13 13 41 22 63 10 21 18 44 19 49 4 35 20 65 36 70 10 4 19 14 19 24 0 9 20
34 45 54 35 29 50 36 70 31 14 -3 25 -12 25 -19 0 -29 -31 -81 -59 -100 -34
-22 -41 -40 -13 -30 17 5 20 -4 28 -82 5 -48 14 -88 20 -90 8 -3 10 10 6 42
-3 34 -1 45 8 43 9 -2 14 13 16 47 2 30 9 54 19 61 8 6 20 25 26 43 11 31 34
41 42 19 3 -10 9 -11 26 0 28 16 46 15 61 -3 16 -19 44 -19 60 0 11 13 15 13
21 3 7 -10 11 -10 21 0 6 6 21 12 33 12 29 0 92 34 88 47 -6 16 6 21 71 27 64
6 91 23 131 86 21 33 26 36 71 35 l49 0 0 -67 c0 -71 5 -84 30 -75 16 7 20 53
7 74 -4 7 -6 29 -4 48 7 58 63 72 76 19 4 -14 11 -22 16 -19 5 3 7 12 4 19 -3
8 3 32 14 54 18 38 19 41 2 69 -20 32 -12 73 15 73 14 0 14 -2 0 -24 -20 -30
-12 -35 48 -29 43 5 52 11 95 62 26 31 54 55 62 54 16 -3 70 74 70 99 0 23 22
38 54 38 16 0 38 7 48 16 16 16 18 15 24 -1 4 -9 2 -33 -4 -53 -8 -26 -8 -39
0 -49 15 -18 54 -12 49 7 -9 30 1 152 15 183 8 18 34 48 58 67 25 19 45 43 45
53 1 14 6 17 21 12 17 -5 20 -2 20 22 0 33 35 113 49 113 5 0 13 14 16 32 4
17 27 55 51 85 34 42 43 59 38 78 -5 19 3 33 35 66 23 24 41 52 41 64 0 11 9
35 20 53 11 18 20 46 20 62 0 16 4 31 9 35 15 9 41 66 41 91 0 12 9 42 19 67
11 24 17 55 14 70 -3 16 -1 27 6 27 6 0 11 7 11 15 0 9 11 33 26 54 18 28 23
46 18 65 -3 14 -1 40 5 56 8 23 7 36 -2 50 -9 15 -9 22 1 32 19 19 14 65 -9
87 -20 18 -21 22 -7 43 20 31 30 88 19 102 -6 7 -6 43 1 95 7 63 7 90 -2 107
-8 14 -10 36 -6 58 5 26 2 43 -9 58 -8 13 -15 41 -15 63 0 46 -35 161 -56 186
-16 18 -18 53 -4 79 8 14 5 28 -9 54 -11 19 -21 54 -23 78 -2 36 -7 44 -26 46
-18 3 -21 8 -16 28 4 16 -3 39 -22 71 -15 27 -31 70 -36 97 -5 34 -17 59 -36
80 -16 17 -33 45 -37 61 -3 17 -19 46 -33 65 -15 19 -31 43 -37 53 -8 15 -46
42 -73 53 -1 1 2 13 7 27 9 22 6 31 -14 56 -14 16 -25 35 -25 42 -1 19 -19 41
-59 69 l-34 23 -18 -21 c-36 -45 -62 -18 -39 42 7 19 6 29 -5 40 -8 8 -15 18
-15 23 -1 19 -57 71 -83 77 -15 4 -32 17 -37 29 -11 29 -64 77 -84 77 -9 0
-21 11 -26 25 -5 14 -20 29 -33 34 -14 5 -27 17 -30 25 -4 9 -13 16 -21 16 -8
0 -19 7 -24 15 -5 9 -29 18 -59 22 -44 5 -53 10 -63 32 -15 38 -154 121 -201
121 -10 0 -26 11 -35 25 -10 15 -24 24 -38 23 -12 -1 -43 10 -68 25 -26 15
-55 27 -66 27 -11 0 -25 6 -31 14 -12 15 -52 25 -111 29 -19 2 -45 8 -57 15
-30 16 -60 15 -67 -3 -7 -20 -25 -19 -33 3 -8 22 -44 51 -64 52 -9 0 -22 7
-29 15 -8 10 -17 12 -23 6 -6 -6 -20 -5 -38 1 -21 7 -33 7 -43 -1 -8 -7 -25
-9 -39 -6 -15 4 -37 0 -56 -10 -30 -15 -32 -15 -57 10 -14 14 -36 25 -49 25
-13 0 -27 5 -30 10 -8 12 -13 12 -47 -7z m-230 -107 c56 1 65 -7 30 -24 -18
-8 -19 -11 -5 -11 9 -1 17 -5 17 -10 0 -5 -26 -9 -58 -8 -52 0 -59 3 -70 26
-17 36 -15 44 11 35 12 -4 46 -8 75 -8z m180 -24 c2 -7 -3 -12 -12 -12 -9 0
-16 7 -16 16 0 17 22 14 28 -4z m-47 -29 c12 -15 12 -16 -4 -10 -10 4 -30 7
-43 7 -13 0 -24 5 -24 10 0 17 57 11 71 -7z m-221 -7 c0 -2 -21 -11 -46 -20
-33 -11 -44 -12 -41 -3 2 7 11 11 20 9 8 -1 18 2 22 8 6 9 45 15 45 6z m277
-32 c-9 -9 -28 6 -21 18 4 6 10 6 17 -1 6 -6 8 -13 4 -17z m303 -14 c0 -13 10
-24 27 -31 16 -6 36 -18 46 -26 25 -23 67 -3 67 32 0 14 5 25 10 25 6 0 10 -7
10 -16 0 -9 9 -18 20 -21 12 -3 20 -14 20 -25 0 -16 5 -19 21 -15 12 3 35 -3
52 -14 18 -10 40 -19 50 -19 9 0 17 -6 17 -14 0 -8 6 -16 14 -19 8 -3 16 -16
18 -29 5 -36 32 -29 36 10 4 37 12 40 37 12 11 -12 31 -20 51 -20 18 0 36 -4
39 -10 3 -5 14 -10 23 -10 20 0 42 -43 35 -69 -5 -21 12 -61 27 -61 6 0 9 18
8 40 -1 22 2 43 5 47 4 3 7 -4 7 -17 0 -21 1 -22 18 -7 9 8 34 18 54 22 35 7
37 5 40 -22 2 -20 9 -29 25 -31 13 -2 32 -17 43 -33 26 -35 73 -40 90 -9 11
20 50 28 50 10 0 -13 33 -13 47 1 8 8 14 6 22 -10 9 -16 8 -26 -4 -45 -10 -15
-15 -40 -13 -62 3 -32 8 -39 33 -47 44 -14 65 -36 65 -69 0 -23 4 -28 23 -28
13 0 32 -9 41 -19 10 -11 30 -21 45 -23 20 -2 26 -8 26 -28 0 -18 6 -26 23
-28 15 -2 22 -10 22 -27 0 -13 10 -29 24 -39 14 -9 26 -27 28 -43 2 -20 9 -29
26 -31 12 -2 22 -8 22 -14 0 -5 11 -19 25 -30 14 -11 25 -26 25 -34 0 -17 5
-17 31 -4 16 9 21 7 29 -15 5 -14 16 -25 25 -25 20 0 19 -20 -1 -34 -22 -17
-3 -63 28 -68 18 -2 22 -8 20 -28 -11 -85 -8 -104 21 -118 24 -12 27 -18 22
-42 -5 -21 2 -38 27 -75 64 -91 67 -98 58 -116 -10 -18 0 -30 33 -42 13 -5 17
-17 17 -49 -1 -95 21 -169 55 -181 8 -4 15 -13 15 -21 0 -11 9 -14 38 -10 32
4 34 3 13 -6 -19 -9 -22 -15 -16 -38 4 -15 8 -50 9 -79 0 -28 4 -55 8 -59 13
-13 -3 -24 -27 -18 -12 3 -26 1 -29 -5 -4 -6 -2 -59 5 -117 10 -95 9 -108 -5
-116 -21 -12 -22 -94 -1 -105 23 -14 54 -81 47 -106 -3 -12 -20 -39 -37 -60
-29 -33 -33 -46 -38 -119 -6 -70 -10 -85 -32 -105 -37 -35 -35 -88 5 -111 16
-9 35 -30 41 -45 16 -38 -7 -62 -55 -59 -27 2 -39 -4 -61 -30 -22 -26 -26 -39
-22 -70 4 -31 1 -44 -18 -64 -12 -13 -25 -38 -29 -55 -10 -54 -7 -224 5 -236
8 -8 7 -17 -5 -34 -9 -13 -13 -32 -10 -46 4 -13 2 -23 -4 -23 -15 0 -21 51 -8
72 9 16 7 22 -8 33 -16 12 -17 18 -7 44 10 23 10 33 0 49 -10 17 -10 26 0 48
17 39 5 226 -19 279 -16 37 -84 110 -175 192 -32 29 -35 36 -34 82 2 32 -3 57
-12 68 -26 30 -39 72 -39 121 -1 26 -8 65 -16 87 -8 22 -24 78 -36 125 -27
117 -27 115 -39 103 -7 -7 -9 -31 -4 -65 4 -29 8 -89 10 -133 2 -44 6 -115 8
-158 3 -56 1 -77 -8 -77 -7 0 -15 -22 -19 -53 -7 -45 -9 -50 -20 -34 -16 21
-36 22 -36 2 0 -17 -25 -20 -35 -5 -13 20 -45 10 -56 -17 -7 -20 -12 -24 -18
-14 -11 17 -31 5 -31 -18 0 -13 10 -20 30 -24 17 -4 30 -13 30 -21 0 -7 7 -19
15 -26 12 -10 15 -10 15 3 0 10 6 13 19 10 16 -4 19 -1 14 16 -6 24 14 29 23
6 10 -24 23 -17 34 17 9 29 9 26 5 -20 -4 -38 -1 -59 9 -74 21 -30 11 -135
-16 -164 -17 -19 -18 -29 -11 -65 7 -35 13 -45 31 -47 24 -4 31 -22 9 -22 -8
0 -14 -12 -14 -30 0 -16 -7 -38 -15 -47 -9 -10 -24 -41 -33 -69 -23 -70 -63
-109 -133 -129 -74 -20 -101 -34 -125 -67 -17 -23 -18 -29 -7 -43 12 -14 11
-18 -1 -26 -8 -5 -22 -7 -31 -5 -9 2 -29 -9 -44 -25 -15 -16 -33 -29 -39 -29
-7 0 -20 -9 -29 -19 -10 -11 -31 -25 -47 -31 -25 -11 -32 -10 -48 4 -17 15
-21 15 -62 -3 -24 -10 -59 -31 -78 -45 -19 -14 -42 -26 -51 -26 -8 0 -26 -7
-38 -16 -12 -8 -50 -21 -84 -29 -35 -8 -84 -20 -111 -26 -41 -11 -52 -10 -85
6 -42 20 -208 75 -228 75 -28 0 -141 55 -171 84 -36 33 -44 75 -18 96 8 6 14
26 15 43 0 78 12 103 62 128 23 12 51 32 64 46 16 17 24 21 24 11 0 -8 -16
-30 -35 -48 -32 -31 -35 -39 -30 -71 4 -22 2 -40 -4 -44 -6 -3 -11 -16 -11
-28 0 -13 -9 -30 -19 -39 -16 -13 -19 -25 -14 -55 9 -56 19 -70 57 -77 19 -4
36 -12 39 -19 5 -14 27 58 27 90 0 12 9 27 20 33 11 6 23 22 26 35 3 14 12 25
20 25 10 0 14 -14 14 -53 0 -40 5 -57 20 -70 18 -16 20 -15 30 3 13 24 13 57
0 65 -25 15 -2 153 35 208 11 17 14 36 10 59 -3 18 -1 56 5 83 7 28 12 60 12
73 0 12 3 22 7 22 12 0 181 167 181 179 0 7 11 33 25 59 14 26 25 63 25 82 0
46 10 80 22 80 6 0 7 -9 3 -22 -15 -49 -25 -152 -15 -162 7 -7 10 -3 10 11 0
15 8 22 28 26 15 3 28 4 29 3 1 -1 -23 -42 -53 -91 -56 -91 -96 -135 -125
-135 -26 0 -47 -32 -50 -75 -5 -77 29 -235 59 -269 23 -25 90 -56 125 -56 32
0 110 41 145 77 24 24 42 30 42 13 0 -18 28 -10 56 15 31 29 97 34 123 11 25
-22 112 -47 141 -41 29 6 54 48 69 116 8 37 6 45 -30 100 -22 32 -43 59 -48
59 -4 0 -30 20 -57 45 -27 25 -54 45 -61 45 -8 0 -18 11 -24 24 -9 20 -21 25
-63 29 -88 9 -131 21 -134 39 -5 24 40 33 90 18 32 -9 50 -9 84 0 53 15 74 37
97 104 l17 51 -4 -44 c-4 -36 -1 -44 14 -48 22 -6 30 -31 30 -100 0 -28 5 -55
11 -58 20 -13 22 -6 28 110 1 26 9 34 59 58 79 38 97 36 118 -13 17 -39 34
-53 34 -28 0 6 10 22 22 35 12 13 16 23 10 23 -7 0 -12 7 -12 15 0 11 -7 14
-22 10 -17 -3 -35 6 -66 35 -39 35 -43 43 -40 77 3 36 2 37 -37 45 -26 6 -47
5 -62 -3 -12 -7 -27 -8 -35 -3 -7 5 -42 10 -78 11 -54 2 -62 0 -46 -10 46 -29
76 -60 76 -79 0 -17 -4 -15 -26 11 -31 37 -113 94 -134 93 -13 0 -54 10 -99
24 -23 7 8 34 40 34 16 0 29 5 29 10 0 6 9 10 20 10 30 0 52 51 44 102 -6 35
-18 55 -68 105 -51 51 -61 68 -62 97 -1 20 -9 56 -18 80 -18 47 -43 67 -146
118 -33 16 -40 23 -26 26 10 2 23 -1 29 -7 18 -18 27 -12 27 19 0 19 7 33 21
40 16 9 19 18 14 37 -5 21 1 33 27 61 21 22 29 36 21 39 -31 11 -8 23 46 23
50 0 64 -4 96 -30 48 -38 75 -38 97 0 31 54 5 99 -97 167 -39 27 -42 27 -187
24 -116 -2 -158 1 -197 14 -67 22 -76 35 -60 80 14 37 57 65 100 65 11 0 19 7
19 15 0 8 9 15 20 15 11 0 29 14 42 30 12 17 28 30 35 30 10 0 33 29 33 42 0
3 -14 14 -30 27 -27 20 -34 21 -68 10 -20 -6 -49 -18 -64 -25 -33 -18 -35 -17
-42 2 -10 27 5 64 34 79 43 22 44 50 2 89 -19 19 -54 40 -76 47 -23 7 -45 16
-50 21 -14 11 20 10 42 -1 17 -9 37 -16 57 -20 6 -2 17 -9 26 -17 15 -14 20
-12 45 21 17 23 33 34 42 30 19 -7 42 12 42 35 0 11 12 22 29 28 16 6 37 22
46 35 19 29 63 50 97 45 18 -2 24 -10 26 -35 2 -20 -1 -33 -8 -33 -7 0 -9 -8
-5 -20 4 -12 1 -27 -5 -35 -7 -8 -10 -25 -7 -37 4 -12 1 -28 -5 -35 -6 -7 -14
-30 -19 -51 -4 -20 -11 -50 -15 -67 -3 -16 -17 -41 -30 -55 -31 -34 -41 -82
-20 -99 20 -17 20 -40 0 -70 -9 -12 -18 -49 -20 -82 l-4 -59 53 0 c31 0 47 4
39 9 -10 6 -3 15 23 36 29 22 35 32 31 51 -3 12 -2 26 4 29 5 3 10 14 10 24 0
10 7 24 15 31 8 7 15 27 15 44 0 18 9 49 20 71 11 22 18 47 15 56 -3 9 4 27
15 42 11 14 20 35 20 48 0 12 10 33 22 46 19 20 20 26 9 47 -15 27 -4 56 31
80 20 14 22 14 33 -7 6 -12 17 -22 25 -22 20 0 16 72 -4 94 -10 11 -12 21 -6
31 13 20 12 87 -1 111 -8 15 -6 25 11 46 14 18 19 35 15 53 -4 20 2 33 30 60
19 19 35 41 35 51 0 9 7 22 15 29 11 9 14 23 9 45 -4 22 0 41 11 58 13 20 14
30 5 47 l-11 21 -41 -23 c-22 -13 -59 -39 -82 -59 -22 -19 -60 -46 -83 -59
-24 -13 -44 -31 -44 -39 -1 -9 -2 -23 -3 -31 -1 -11 -14 -15 -47 -15 -39 -1
-53 -7 -95 -43 -28 -23 -54 -42 -59 -42 -16 0 -55 -43 -55 -60 0 -17 -38 -40
-66 -40 -8 0 -18 -9 -22 -21 -7 -18 -12 -12 -35 38 -47 102 -60 118 -98 119
-73 2 -85 5 -110 28 -14 13 -41 28 -60 35 -34 11 -59 46 -59 83 0 10 -7 30
-16 43 -9 14 -13 32 -9 45 4 13 -5 45 -25 89 -18 37 -31 77 -29 87 1 11 -1 38
-5 62 -6 33 -14 46 -32 52 -13 5 -24 14 -24 20 0 15 -76 90 -91 90 -8 0 -23 8
-34 17 -19 15 -18 15 15 9 19 -4 37 -11 38 -16 2 -6 10 -10 17 -10 8 0 18 -7
23 -17 9 -14 11 -14 21 5 10 19 18 21 49 16 31 -5 41 -2 61 20 29 31 51 34 51
6z m1320 -568 c0 -16 -42 -12 -47 4 -2 7 6 11 22 10 14 0 25 -7 25 -14z
m-2545 -232 c10 -11 26 -22 36 -25 11 -4 22 -17 25 -31 8 -29 24 -22 24 12 0
13 4 24 10 24 18 0 -3 -64 -36 -112 l-34 -47 10 -78 c5 -43 9 -104 8 -135 -1
-34 3 -63 10 -70 7 -7 12 -18 12 -26 0 -8 13 -34 30 -58 32 -48 32 -54 -1 -26
-23 19 -43 60 -40 81 1 8 -1 17 -6 20 -27 20 -43 84 -23 96 13 8 13 58 -1 72
-6 6 -11 50 -11 99 0 49 -5 94 -10 101 -5 7 -7 21 -4 31 4 11 -2 29 -14 45
-34 43 -21 67 15 27z m192 4 c-3 -3 -12 -4 -19 -1 -8 3 -5 6 6 6 11 1 17 -2
13 -5z m-47 -14 c0 -5 -7 -10 -16 -10 -8 0 -12 5 -9 10 3 6 10 10 16 10 5 0 9
-4 9 -10z m1755 -30 c0 -7 -6 -15 -12 -17 -8 -3 -13 4 -13 17 0 13 5 20 13 18
6 -3 12 -11 12 -18z m-309 -53 c-3 -12 0 -27 5 -34 6 -6 7 -18 3 -25 -5 -7 -9
-17 -9 -23 -3 -32 -61 -105 -84 -105 -18 0 -13 11 14 32 29 23 67 91 61 110
-2 7 -7 27 -10 45 -4 26 -2 31 10 26 10 -4 14 -13 10 -26z m-1622 -152 c-10
-25 -34 -17 -34 10 0 22 3 24 20 15 11 -6 17 -16 14 -25z m1334 -15 c7 0 10
-4 7 -10 -3 -5 -24 -10 -45 -10 -46 0 -94 -37 -84 -64 5 -13 1 -15 -23 -10
-28 6 -78 -21 -160 -85 -35 -28 -24 -51 24 -51 45 0 59 -8 64 -35 3 -12 14
-21 27 -23 26 -4 92 24 92 38 0 5 12 15 28 22 24 12 27 19 32 78 3 42 8 60 14
52 11 -18 -11 -193 -32 -252 -23 -68 -32 -74 -73 -53 -19 10 -38 24 -42 31
-11 17 -27 15 -27 -3 0 -8 -4 -15 -10 -15 -17 0 -8 -70 11 -81 27 -14 42 -11
35 7 -8 20 10 44 33 44 14 -1 13 -3 -3 -15 -10 -7 -15 -19 -11 -25 7 -11 -15
-70 -26 -70 -4 0 -35 -16 -68 -34 -53 -30 -61 -33 -61 -17 0 14 10 20 39 25
52 8 64 25 41 54 -24 29 -32 28 -52 -8 -9 -17 -22 -30 -28 -30 -7 0 5 23 25
52 48 67 60 105 40 135 -8 12 -15 30 -15 40 -1 26 -20 47 -58 62 -29 12 -38
11 -74 -5 -29 -13 -43 -15 -45 -7 -3 7 -10 10 -18 7 -23 -9 -26 15 -3 27 13 6
48 36 78 66 50 49 155 107 235 131 11 3 34 14 50 24 17 10 39 16 50 13 11 -2
26 -5 33 -5z m53 -5 c1 -17 -18 -17 -25 0 -4 11 -1 15 10 13 8 -2 15 -7 15
-13z m89 5 c8 -5 11 -12 7 -16 -3 -4 -12 -2 -19 3 -7 6 -22 13 -33 16 -16 4
-16 5 5 6 14 0 32 -3 40 -9z m-105 -40 c3 -5 -3 -10 -14 -10 -12 0 -21 5 -21
10 0 6 6 10 14 10 8 0 18 -4 21 -10z m-55 -4 c0 -3 -4 -8 -10 -11 -5 -3 -10
-1 -10 4 0 6 5 11 10 11 6 0 10 -2 10 -4z m-697 -435 c10 -1 9 -29 -3 -36 -5
-3 -18 0 -29 7 -16 10 -23 9 -39 -5 -10 -9 -23 -17 -28 -17 -5 0 -17 -19 -27
-41 -10 -23 -20 -39 -23 -36 -13 13 31 86 57 98 16 6 33 17 39 24 6 7 19 12
28 10 9 -2 20 -4 25 -4z m57 -15 c0 -59 -55 -126 -103 -126 -9 0 -22 -9 -30
-20 -12 -17 -16 -18 -20 -6 -8 19 24 46 55 46 26 0 55 27 77 72 11 22 12 30 1
43 -10 12 -10 15 4 15 10 0 16 -8 16 -24z m-343 -78 c-14 -35 -29 -75 -32 -90
-4 -16 -13 -28 -21 -28 -16 0 -19 16 -4 25 6 3 10 14 10 24 0 21 38 119 54
140 21 27 17 -9 -7 -71z m689 -8 c-1 -21 -6 -30 -18 -30 -23 0 -23 18 -1 42
21 23 20 23 19 -12z m2134 -10 c0 -5 -2 -10 -4 -10 -3 0 -8 5 -11 10 -3 6 -1
10 4 10 6 0 11 -4 11 -10z m-2040 -20 c0 -11 -4 -20 -9 -20 -14 0 -23 18 -16
30 10 17 25 11 25 -10z m-636 -26 c23 -9 20 -24 -4 -24 -11 0 -20 7 -20 15 0
17 2 18 24 9z m586 -13 c0 -10 -8 -21 -17 -24 -10 -2 -27 -8 -37 -13 -15 -5
-12 0 9 24 32 37 45 40 45 13z m627 -23 c-2 -8 -17 -12 -35 -10 -16 2 -33 -2
-37 -8 -11 -17 3 -24 20 -10 8 7 15 8 15 3 0 -5 -11 -16 -25 -23 -27 -14 -35
-33 -10 -24 34 13 -4 -34 -46 -56 -21 -12 -21 -11 -15 21 14 79 15 89 6 94 -5
3 -13 -2 -18 -11 -8 -14 -19 -16 -56 -11 -43 6 -46 5 -46 -16 0 -13 -5 -28
-12 -35 -9 -9 -7 -16 7 -32 10 -11 24 -20 30 -20 7 0 15 -12 18 -27 3 -16 16
-32 28 -38 26 -12 39 -71 12 -61 -8 3 -26 8 -39 11 -82 17 -74 7 -73 98 1 45
4 96 8 112 6 29 9 30 69 36 34 3 65 9 69 12 3 4 35 7 71 7 46 0 63 -3 59 -12z
m-442 -60 c-9 -73 -14 -88 -30 -88 -14 0 -30 40 -28 70 3 37 23 70 44 70 19 0
20 -4 14 -52z m-103 -75 c10 -9 18 -21 18 -26 0 -6 11 -25 25 -43 14 -18 25
-42 25 -53 0 -14 -9 -23 -25 -27 -14 -3 -25 -12 -25 -20 0 -23 -28 -16 -36 8
-4 13 -15 34 -25 48 -16 21 -17 31 -8 65 19 75 20 76 51 48z m-172 -58 c0 -8
-7 -15 -15 -15 -8 0 -15 7 -15 15 0 8 7 15 15 15 8 0 15 -7 15 -15z m-2212
-69 c-7 -8 -17 -12 -22 -9 -4 3 -2 9 5 14 22 13 31 11 17 -5z m2817 -6 c3 -5
-1 -10 -10 -10 -9 0 -13 5 -10 10 3 6 8 10 10 10 2 0 7 -4 10 -10z m-902 -31
c9 -17 17 -38 17 -47 0 -8 10 -26 21 -39 34 -35 12 -53 -66 -53 -96 0 -195
-56 -195 -111 0 -16 -4 -29 -10 -29 -14 0 -12 35 4 75 19 46 10 50 -31 15 -40
-36 -61 -38 -72 -7 -5 13 -16 29 -25 36 -17 14 -21 31 -8 31 5 0 17 -16 28
-35 10 -19 23 -35 29 -35 5 0 64 52 130 115 69 65 129 114 140 114 12 1 27
-11 38 -30z m278 21 c14 0 11 -27 -5 -33 -16 -6 -36 11 -36 31 0 9 6 12 16 8
9 -3 20 -6 25 -6z m9 -200 c-56 -48 -116 -81 -135 -74 -11 5 -17 -3 -21 -26
-5 -23 -22 -44 -63 -76 -31 -24 -60 -44 -64 -44 -5 0 -20 -9 -34 -20 -53 -42
-71 -25 -99 93 -8 32 -21 71 -29 86 -12 23 -12 31 -2 39 19 16 90 30 111 22
11 -3 41 0 69 7 31 8 76 10 121 6 56 -4 79 -2 102 10 16 9 43 16 59 16 l30 0
-45 -39z m314 8 c35 -32 36 -35 41 -127 3 -52 10 -102 15 -112 13 -23 13 -156
1 -163 -5 -4 -29 3 -54 13 -40 17 -46 18 -51 4 -6 -14 -9 -14 -27 2 -18 17
-21 17 -36 3 -14 -15 -14 -18 1 -39 24 -35 20 -43 -33 -72 -56 -31 -71 -33
-71 -11 0 10 5 14 15 10 19 -7 84 25 85 42 0 15 -2 15 -36 -3 -45 -23 -57 -20
-51 14 12 56 42 106 73 121 31 15 31 16 16 40 -31 49 -56 70 -91 76 -35 6 -84
42 -102 76 -7 14 -2 25 23 49 36 35 126 79 161 79 12 0 33 7 47 14 35 19 34
20 74 -16z m-624 -373 c7 -9 10 -18 7 -21 -10 -11 -37 5 -37 21 0 19 14 19 30
0z m1080 -90 c0 -25 -4 -45 -10 -45 -5 0 -10 11 -10 25 0 21 -3 23 -23 16 -17
-7 -26 -4 -39 14 -22 29 -15 35 39 35 l43 0 0 -45z m-1010 -61 c0 -8 -4 -14
-10 -14 -12 0 -31 35 -23 44 9 8 33 -14 33 -30z m80 -43 c17 -33 12 -53 -12
-49 -18 2 -24 11 -26 36 -4 37 20 45 38 13z m1488 -19 c3 -9 -3 -13 -19 -10
-12 1 -24 9 -27 16 -3 9 3 13 19 10 12 -1 24 -9 27 -16z m-625 -17 c-3 -9 -8
-14 -10 -11 -3 3 -2 9 2 15 9 16 15 13 8 -4z m69 -187 c9 -25 -5 -60 -28 -70
-34 -16 -40 -4 -19 42 18 39 39 52 47 28z m-617 -73 c28 -13 57 -25 65 -25 8
0 24 -8 35 -16 20 -16 20 -16 -3 -9 -22 6 -23 5 -13 -14 9 -15 8 -26 0 -43 -7
-13 -15 -29 -19 -37 -3 -8 -17 -21 -31 -30 -23 -15 -24 -15 -8 4 38 45 -11
129 -92 162 -22 8 -39 19 -39 24 0 17 55 9 105 -16z m195 -45 c0 -5 -7 -10
-16 -10 -8 0 -12 5 -9 10 3 6 10 10 16 10 5 0 9 -4 9 -10z m-585 -289 c3 -5 1
-12 -5 -16 -5 -3 -10 1 -10 9 0 18 6 21 15 7z m2095 -46 c-7 -8 -17 -15 -22
-15 -6 0 -5 7 2 15 7 8 17 15 22 15 6 0 5 -7 -2 -15z m-40 -35 c0 -5 -7 -10
-15 -10 -9 0 -18 -7 -21 -15 -7 -16 -34 -21 -34 -5 0 9 47 39 63 40 4 0 7 -4
7 -10z m-80 -49 c0 -6 -4 -13 -10 -16 -5 -3 -10 -14 -10 -24 0 -10 -9 -26 -20
-36 -15 -14 -23 -15 -34 -6 -10 8 -16 9 -21 1 -3 -5 -11 -10 -18 -10 -6 0 -2
7 10 15 12 8 28 12 37 9 10 -4 18 1 22 12 14 44 24 64 34 64 5 0 10 -4 10 -9z
m-424 -123 c-9 -5 -16 -16 -16 -23 0 -24 26 -17 38 10 14 31 32 32 32 3 0 -25
-58 -78 -86 -78 -12 0 -15 6 -10 23 3 12 6 29 6 38 0 22 43 66 48 49 3 -7 -3
-17 -12 -22z m294 22 c0 -5 -5 -10 -12 -10 -14 0 -68 -50 -68 -62 0 -14 -39
-48 -55 -48 -8 0 -15 7 -15 16 0 14 -3 14 -15 4 -8 -7 -15 -19 -15 -26 0 -8
-7 -14 -15 -14 -8 0 -15 5 -15 10 0 14 -33 13 -48 -2 -8 -8 -12 -8 -12 -1 0
23 30 36 54 25 21 -9 23 -8 19 7 -4 14 3 19 33 24 25 4 41 2 46 -6 6 -9 10 -8
17 3 32 51 67 90 83 90 10 0 18 -4 18 -10z m-1720 -92 c1 -19 -20 -5 -34 23
-22 43 -7 60 15 18 10 -19 18 -37 19 -41z m-1400 48 c0 -3 -4 -8 -10 -11 -5
-3 -10 -1 -10 4 0 6 5 11 10 11 6 0 10 -2 10 -4z m1434 -108 c11 -18 33 -50
49 -71 16 -21 27 -40 24 -43 -9 -9 -27 5 -27 21 0 7 -6 15 -13 18 -15 5 -70
107 -59 107 4 0 16 -15 26 -32z m1171 -25 c-25 -22 -42 -30 -48 -24 -13 13 7
37 48 63 46 27 45 0 0 -39z m55 20 c-1 -15 -30 -46 -37 -40 -3 4 2 16 12 27
19 21 25 24 25 13z m220 -109 c0 -16 -16 -19 -25 -4 -8 13 4 32 16 25 5 -4 9
-13 9 -21z m-1340 -24 c0 -5 -4 -10 -10 -10 -5 0 -10 5 -10 10 0 6 5 10 10 10
6 0 10 -4 10 -10z m-22 -46 c-10 -10 -28 6 -28 24 0 15 1 15 17 -1 9 -9 14
-19 11 -23z m842 -159 c0 -8 -7 -15 -15 -15 -9 0 -12 6 -9 15 4 8 10 15 15 15
5 0 9 -7 9 -15z m-1582 -53 c2 -7 -3 -12 -12 -12 -9 0 -16 7 -16 16 0 17 22
14 28 -4z m1602 -6 c-28 -27 -85 -45 -78 -25 5 15 67 49 88 49 10 0 7 -7 -10
-24z m-110 -46 c-20 -13 -43 -13 -35 0 3 6 16 10 28 10 18 0 19 -2 7 -10z
m-1005 -145 c0 -5 -10 -11 -22 -13 -16 -2 -23 2 -23 13 0 11 7 15 23 13 12 -2
22 -7 22 -13z m632 -77 c-3 -8 -6 -5 -6 6 -1 11 2 17 5 13 3 -3 4 -12 1 -19z"/>
<path d="M3057 3373 c-3 -16 -3 -30 0 -33 6 -7 33 31 33 47 0 25 -28 13 -33
-14z"/>
<path d="M3329 2734 c-7 -8 -20 -37 -29 -64 l-17 -49 26 -25 c14 -13 43 -28
64 -31 20 -4 40 -11 43 -16 3 -5 13 -9 22 -9 9 0 23 -4 31 -9 12 -8 12 -12 2
-25 -7 -8 -10 -20 -6 -26 3 -5 9 -37 13 -70 8 -68 25 -84 30 -27 4 43 12 46
47 15 20 -17 25 -31 25 -69 0 -30 6 -51 16 -60 22 -18 36 6 28 49 -7 38 1 40
32 7 15 -16 34 -25 54 -25 25 0 30 -4 30 -25 0 -16 6 -25 15 -25 18 0 18 2 1
66 -8 29 -10 57 -5 66 5 8 2 26 -7 42 -7 16 -14 34 -14 40 0 29 -26 66 -47 66
-12 0 -35 11 -51 25 -17 14 -34 25 -39 25 -6 0 -15 11 -21 24 -6 14 -24 33
-39 43 -34 22 -59 42 -85 66 -19 18 -68 37 -94 37 -6 0 -17 -7 -25 -16z"/>
<path d="M3746 2588 c-8 -57 -8 -55 5 -118 5 -30 12 -71 14 -91 8 -94 35 -162
60 -152 20 7 51 -21 59 -52 4 -14 22 -31 46 -43 l40 -19 -7 39 c-6 38 -5 40
16 33 26 -8 36 11 22 46 -5 13 -10 18 -10 10 -1 -8 -8 -11 -22 -8 -15 4 -19 2
-15 -8 2 -7 -1 -19 -9 -25 -19 -16 -27 2 -23 52 l3 42 -44 9 c-38 8 -45 6 -58
-12 -8 -12 -18 -21 -23 -21 -11 0 10 52 25 62 5 4 6 10 2 14 -3 4 -13 2 -20
-4 -11 -10 -13 -3 -11 39 4 67 12 89 38 110 17 15 19 20 8 31 -11 11 -16 10
-27 -5 -12 -17 -15 -14 -29 34 -9 29 -16 59 -16 66 0 32 -18 9 -24 -29z"/>
<path d="M3810 2400 c0 -5 7 -10 15 -10 8 0 15 5 15 10 0 6 -7 10 -15 10 -8 0
-15 -4 -15 -10z"/>
<path d="M4120 2177 c0 -14 4 -28 9 -32 21 -12 41 -71 41 -117 0 -49 24 -88
54 -88 7 0 31 -19 52 -42 39 -44 78 -70 88 -60 3 3 33 6 67 8 34 1 65 6 70 11
4 4 2 26 -5 48 -10 31 -22 45 -54 60 -22 11 -51 30 -64 43 -14 12 -28 22 -34
22 -5 0 -20 12 -33 25 -13 14 -32 25 -42 25 -10 0 -19 6 -19 14 0 14 -70 76
-86 76 -4 0 -16 7 -26 17 -17 15 -18 15 -18 -10z"/>
<path d="M3760 2141 c0 -6 5 -13 10 -16 6 -3 10 1 10 9 0 9 -4 16 -10 16 -5 0
-10 -4 -10 -9z"/>
<path d="M3990 2136 c0 -9 5 -16 10 -16 6 0 10 4 10 9 0 6 -4 13 -10 16 -5 3
-10 -1 -10 -9z"/>
<path d="M3044 1692 c-15 -10 -25 -40 -14 -47 17 -10 40 8 40 31 0 25 -7 29
-26 16z"/>
<path d="M3910 1573 c0 -13 5 -23 10 -23 13 0 13 11 0 30 -8 12 -10 11 -10 -7z"/>
<path d="M2650 3281 c0 -6 4 -13 10 -16 6 -3 7 1 4 9 -7 18 -14 21 -14 7z"/>
<path d="M1956 2881 c-9 -9 -16 -25 -16 -33 0 -9 -7 -21 -15 -28 -36 -30 1
-29 71 3 20 8 20 11 7 38 -19 38 -27 42 -47 20z"/>
<path d="M1882 2833 c-7 -12 -12 -30 -12 -40 1 -13 5 -11 16 10 8 16 13 34 11
40 -2 7 -9 3 -15 -10z"/>
<path d="M1624 2792 c-11 -7 -24 -57 -30 -120 -2 -18 -6 -37 -9 -42 -8 -13
-51 -13 -76 1 -16 8 -34 4 -89 -23 -39 -18 -72 -41 -76 -50 -3 -10 -14 -18
-24 -18 -11 0 -27 -11 -36 -25 -9 -14 -22 -25 -29 -25 -7 0 -29 -13 -50 -30
-21 -16 -48 -30 -60 -30 -24 0 -65 -38 -65 -62 0 -24 -36 -51 -58 -44 -15 5
-27 -1 -43 -22 -13 -16 -41 -38 -62 -47 -22 -10 -43 -28 -49 -41 -6 -12 -22
-24 -37 -27 -14 -3 -55 -33 -91 -66 -98 -90 -102 -93 -171 -131 -86 -46 -106
-65 -89 -85 7 -8 20 -15 30 -15 10 0 31 -7 46 -15 16 -8 37 -15 47 -15 9 0 17
-4 17 -10 0 -15 17 -12 47 7 38 25 93 27 93 4 0 -30 13 -32 40 -6 20 20 42 28
83 32 72 7 91 -6 84 -59 -4 -32 -2 -38 14 -38 10 0 19 -7 19 -15 0 -20 10 -19
26 3 7 9 10 28 7 42 -4 21 1 28 32 42 35 16 39 16 68 -2 31 -19 32 -19 54 2
13 12 25 19 28 17 5 -6 -57 -90 -133 -181 -26 -31 -76 -114 -111 -185 -35 -70
-71 -137 -81 -148 -10 -11 -25 -33 -33 -50 -31 -58 -32 -59 -61 -40 -14 10
-26 25 -26 34 0 10 -14 28 -31 40 -22 17 -28 26 -20 34 16 16 14 42 -4 57 -8
7 -15 22 -15 35 0 23 -28 55 -48 55 -19 0 -25 -47 -18 -129 5 -67 9 -79 33
-99 43 -34 43 -35 64 -69 20 -35 39 -43 39 -18 0 8 10 19 21 26 25 13 26 15
-40 -86 -26 -38 -51 -77 -56 -86 -55 -88 -109 -159 -120 -159 -8 0 -19 9 -25
21 -10 18 -78 56 -85 47 -11 -14 -35 -110 -35 -142 -1 -81 -17 -129 -49 -157
l-32 -26 23 -15 c20 -14 23 -23 21 -76 -2 -56 0 -63 29 -91 17 -16 36 -40 42
-53 6 -13 22 -25 36 -26 13 -2 34 -11 47 -19 20 -14 23 -14 29 1 4 11 13 14
30 10 23 -6 30 3 25 30 -4 20 11 45 25 39 8 -3 14 1 14 11 0 9 -4 16 -10 16
-5 0 -10 7 -10 15 0 18 92 206 121 246 10 15 19 30 19 33 0 4 18 31 40 60 24
31 40 64 40 80 0 16 11 38 27 54 61 61 64 67 53 97 -9 23 -7 28 8 31 23 7 66
70 59 88 -4 9 7 29 24 47 17 18 32 47 35 70 4 22 10 39 15 39 5 0 9 7 9 16 0
22 -22 12 -38 -17 -13 -24 -13 -24 -7 6 7 34 85 179 92 172 2 -3 -8 -28 -22
-57 -30 -59 -28 -88 5 -70 11 6 20 19 20 29 0 10 9 26 19 35 11 10 25 32 32
49 7 18 21 38 32 46 11 8 17 21 14 32 -5 20 60 125 146 234 45 57 59 83 37 70
-13 -8 -13 11 0 36 19 34 -6 20 -34 -18 -14 -21 -42 -58 -61 -83 -19 -25 -42
-59 -51 -76 -8 -17 -27 -42 -41 -55 -39 -36 46 98 123 194 36 44 84 121 111
177 31 64 54 99 64 99 10 1 28 23 43 51 33 63 33 75 0 27 -50 -74 -35 -27 31
100 37 70 71 133 75 138 5 6 11 28 15 50 l7 40 -21 -22 c-36 -38 -55 -27 -26
15 12 15 14 32 9 59 -6 33 -8 35 -15 15 -5 -12 -12 -22 -18 -22 -5 0 -12 -10
-16 -22 -6 -20 -8 -21 -12 -5 -3 10 2 26 11 36 9 10 16 23 16 29 0 14 21 54
33 63 4 3 12 21 17 39 7 25 6 36 -3 42 -15 10 -49 10 -63 0z m-20 -254 c-4
-13 -15 -34 -25 -47 -11 -13 -19 -29 -19 -37 0 -7 -22 -51 -49 -97 -27 -47
-52 -96 -56 -109 -14 -43 -73 -154 -90 -168 -9 -8 -21 -25 -26 -39 l-10 -24
-15 21 c-15 22 -72 31 -88 15 -14 -14 -91 -12 -108 4 -17 15 -28 14 -60 -9
-15 -11 -21 -9 -40 9 -21 22 -21 23 -4 42 14 15 23 18 37 11 26 -14 29 -13 29
14 0 14 10 30 25 40 35 23 37 21 33 -26 -2 -34 0 -43 15 -46 14 -3 17 5 17 52
0 45 4 58 22 70 34 24 45 19 52 -24 9 -60 24 -48 31 26 4 36 14 71 21 79 8 7
18 25 24 39 6 16 17 26 29 26 24 0 33 13 41 60 5 29 10 35 30 34 14 0 34 -3
46 -7 24 -9 80 30 114 81 26 38 34 41 24 10z m-154 -453 c-41 -80 -59 -87 -22
-7 35 72 43 85 50 78 3 -3 -10 -35 -28 -71z m-177 -130 c-36 -52 -53 -67 -53
-45 0 5 6 13 13 17 7 4 21 25 31 46 9 20 24 37 32 37 11 0 4 -16 -23 -55z
m-473 26 c0 -12 -29 -23 -41 -15 -18 10 -9 24 16 24 14 0 25 -4 25 -9z m618
-109 c-8 -18 -142 -191 -145 -188 -8 8 39 84 76 125 13 14 30 36 38 49 14 20
39 32 31 14z"/>
<path d="M393 2211 c-13 -11 -23 -30 -23 -45 0 -19 -5 -26 -19 -26 -23 0 -71
-58 -64 -76 2 -7 -5 -18 -17 -24 -24 -13 -24 -23 -1 -135 6 -27 13 -66 17 -85
4 -19 12 -38 19 -43 7 -4 16 -25 20 -47 4 -25 12 -40 21 -40 16 0 37 -47 30
-66 -3 -7 2 -18 10 -24 8 -7 14 -20 14 -30 0 -10 7 -23 15 -30 8 -7 15 -21 15
-31 0 -10 23 -39 50 -65 40 -37 50 -53 50 -79 0 -18 7 -38 15 -45 8 -7 15 -20
15 -30 0 -10 16 -27 35 -39 29 -17 34 -25 30 -43 -8 -30 52 -92 79 -82 36 14
39 42 9 89 -15 24 -38 49 -50 56 -35 19 -55 99 -59 238 -3 99 -6 127 -19 133
-8 5 -15 20 -15 32 0 13 -7 27 -16 30 -10 4 -14 14 -11 26 3 11 -2 27 -10 36
-8 8 -13 18 -10 21 4 3 2 14 -3 24 -8 14 -18 16 -45 12 -28 -4 -35 -2 -35 10
0 22 -18 31 -35 17 -15 -13 -45 -7 -45 8 0 13 43 57 67 70 16 9 20 20 18 59
-1 31 3 52 12 58 12 9 12 18 -3 55 -9 25 -17 64 -16 88 1 47 -10 52 -45 23z"/>
<path d="M1516 2104 c-8 -21 -8 -24 3 -24 5 0 11 9 14 20 6 24 -8 27 -17 4z"/>
<path d="M1730 2055 c-9 -11 -16 -13 -24 -5 -5 5 -36 10 -68 10 -51 0 -62 -4
-84 -27 -15 -16 -33 -41 -41 -58 -9 -16 -24 -39 -35 -51 -17 -19 -17 -22 -3
-34 12 -10 19 -10 27 -2 18 18 30 14 23 -7 -7 -23 19 -35 45 -21 34 18 53 12
48 -15 -6 -30 7 -33 22 -5 15 29 38 25 42 -7 3 -32 21 -34 26 -3 3 21 28 28
34 10 2 -6 26 -12 55 -14 49 -3 51 -2 40 16 -17 27 6 38 49 25 33 -10 34 -12
34 -63 0 -62 7 -84 26 -84 12 0 13 17 8 93 -3 50 -5 104 -5 119 0 15 -4 30 -9
33 -6 4 -10 21 -10 38 0 44 -13 62 -36 52 -11 -5 -23 -7 -29 -5 -5 1 -23 4
-40 6 -16 1 -42 6 -56 9 -17 5 -29 2 -39 -10z m-140 -81 c0 -14 -3 -14 -15 -4
-8 7 -15 14 -15 16 0 2 7 4 15 4 8 0 15 -7 15 -16z"/>
<path d="M2150 1715 c-6 -15 -17 -25 -29 -25 -26 0 -45 -32 -29 -48 16 -16 33
-15 48 3 7 8 21 15 31 15 23 0 35 18 20 33 -6 6 -11 19 -11 29 0 26 -19 22
-30 -7z"/>
</g>
</svg>
